<?xml version="1.0" encoding="UTF-8" standalone="no"?><svg width="900" height="1000" xmlns="http://www.w3.org/2000/svg" stroke-linejoin="round" stroke-linecap="round" fill-rule="evenodd" fill="none"><rect x="0" y="0" width="900" height="1000" fill="#F2EDDE"/><g transform="scale(100 100) translate(3 3)"><path d=" M 0,0"/><g><path d=" M 0,0"/><g><path d=" M 0,0"/><path d=" M 3,3 L 3,4 L 2,4 L 1,4 L 0,4 L 0,3 L 0,2 L 0,1 L 0,0 L 1,0 L 2,0 L 3,0 L 3,1 L 3,2 L 3,3" fill="#F2EDDE" stroke="#000000" stroke-width="0.02"/><path d=" M 0,4 L 0.5,3.5 M 0,0 L 0.5,0.5 M 3,0 L 2.5,0.5 M 3,4 L 2.5,3.5" stroke="#000000" stroke-width="0.02"/><path d=" M 0,1.85 L 0,1.15 L -0.625,1.15 L -0.625,1.85 L 0,1.85" fill="#F2EDDE" stroke="#000000" stroke-width="0.02"/><path d=" M -0.225,1.15 L -0.225,1.85 M -0.325,1.15 L -0.325,1.85 M -0.425,1.15 L -0.425,1.85 M -0.525,1.15 L -0.525,1.85" stroke="#000000" stroke-width="0.02"/><path d=" M 3,3 L 3,4 L 2,4 L 1,4 L 0,4 L 0,3 L 0,2 L 0,1 L 0,0 L 1,0 L 2,0 L 3,0 L 3,1 L 3,2 L 3,3" fill="#F2EDDE" stroke="#000000" stroke-width="0.02"/><path d=" M 0,4 L 0.5,3.5 M 0,0 L 0.5,0.5 M 3,0 L 2.5,0.5 M 3,4 L 2.5,3.5" stroke="#000000" stroke-width="0.02"/><path d=" M 3,3 L 3,4 L 2,4 L 1,4 L 0,4 L 0,3 L 0,2 L 0,1 L 0,0 L 1,0 L 2,0 L 3,0 L 3,1 L 3,2 L 3,3" fill="#F2EDDE" stroke="#000000" stroke-width="0.02"/><path d=" M 0,4 L 0.5,3.5 M 0,0 L 0.5,0.5 M 3,0 L 2.5,0.5 M 3,4 L 2.5,3.5" stroke="#000000" stroke-width="0.02"/><path d=" M 3,3 L 3,4 L 2,4 L 1,4 L 0,4 L 0,3 L 0,2 L 0,1 L 0,0 L 1,0 L 2,0 L 3,0 L 3,1 L 3,2 L 3,3" fill="#F2EDDE" stroke="#000000" stroke-width="0.02"/><path d=" M 0,4 L 0.5,3.5 M 0,0 L 0.5,0.5 M 3,0 L 2.5,0.5 M 3,4 L 2.5,3.5" stroke="#000000" stroke-width="0.02"/></g><g><path d=" M 0,0"/><path d=" M 1,2 L 0,2 L 0,1 L 0,0 L 1,0 L 2,0 L 2,1 L 2,2 L 1,2" fill="#8B796B" stroke="#8B796B" stroke-width="0.02"/><path d=" M 2,2 L 3,2 L 3,3 L 3,4 L 2,4 L 1,4 L 0,4 L 0,3 L 0,2 L 1,2 L 2,2" fill="#8B796B" stroke="#8B796B" stroke-width="0.02"/><path d=" M 3,2 L 2,2 L 2,1 L 2,0 L 3,0 L 3,1 L 3,2" fill="#8B796B" stroke="#8B796B" stroke-width="0.02"/></g><g><path d=" M 0,0"/><path d=" M 1,0 L 1,1 M 2,0 L 2,0.872 M 0,1 L 1,1 M 1,1 L 1,2 M 1,1 L 2,1 M 2,1 L 2,2 M 2,1 L 2.893,1 M 2.959,1 L 3,1 M 0,2 L 1,2 M 1,2 L 1,3 M 1,2 L 1.74,2 M 1.902,2 L 2,2 M 2,2 L 2,2.838 M 2,2 L 2.882,2 M 0,3 L 0.759,3 M 0.867,3 L 1,3 M 1,3 L 1,4 M 1,3 L 1.477,3 M 1.732,3 L 2,3 M 2,3 L 2,3.87 M 2,3.982 L 2,4 M 2,3 L 3,3" stroke="#000000" stroke-width="0.02" stroke-opacity="0.4"/></g><g><path d=" M 0,0"/><path d=" M 0.598,1.697 L 0.62,1.746 L 0.622,1.8 L 0.603,1.851 L 0.566,1.89 L 0.516,1.913 L 0.462,1.914 L 0.412,1.895 L 0.372,1.858 L 0.35,1.809 L 0.348,1.755 L 0.367,1.704 L 0.404,1.665 L 0.454,1.643 L 0.508,1.641 L 0.558,1.66 L 0.598,1.697 M 0.136,1.667 L 0.141,1.679 L 0.142,1.692 L 0.137,1.703 L 0.128,1.713 L 0.117,1.718 L 0.104,1.718 L 0.092,1.714 L 0.083,1.705 L 0.078,1.694 L 0.078,1.681 L 0.082,1.669 L 0.091,1.66 L 0.102,1.655 L 0.115,1.654 L 0.127,1.659 L 0.136,1.667 M 0.445,1.4 L 0.468,1.452 L 0.47,1.51 L 0.45,1.564 L 0.41,1.606 L 0.357,1.63 L 0.3,1.632 L 0.246,1.611 L 0.203,1.572 L 0.18,1.519 L 0.178,1.461 L 0.198,1.407 L 0.238,1.365 L 0.291,1.341 L 0.348,1.34 L 0.402,1.36 L 0.445,1.4 M 0.871,1.478 L 0.878,1.494 L 0.878,1.512 L 0.872,1.528 L 0.86,1.541 L 0.844,1.548 L 0.826,1.549 L 0.81,1.543 L 0.797,1.531 L 0.79,1.515 L 0.789,1.497 L 0.795,1.481 L 0.807,1.468 L 0.824,1.46 L 0.841,1.46 L 0.858,1.466 L 0.871,1.478 M 0.418,1.609 L 0.45,1.679 L 0.452,1.755 L 0.425,1.826 L 0.373,1.882 L 0.303,1.913 L 0.227,1.915 L 0.156,1.889 L 0.101,1.836 L 0.069,1.767 L 0.067,1.691 L 0.094,1.619 L 0.146,1.564 L 0.215,1.533 L 0.292,1.53 L 0.363,1.557 L 0.418,1.609 M 0.393,1.276 L 0.413,1.321 L 0.415,1.371 L 0.397,1.418 L 0.363,1.454 L 0.318,1.474 L 0.268,1.476 L 0.221,1.458 L 0.185,1.424 L 0.165,1.379 L 0.163,1.329 L 0.181,1.283 L 0.215,1.247 L 0.26,1.226 L 0.31,1.224 L 0.356,1.242 L 0.393,1.276 M 0.598,1.38 L 0.624,1.437 L 0.626,1.499 L 0.604,1.558 L 0.561,1.603 L 0.504,1.629 L 0.441,1.631 L 0.383,1.609 L 0.337,1.566 L 0.312,1.509 L 0.31,1.447 L 0.332,1.388 L 0.375,1.343 L 0.432,1.317 L 0.494,1.315 L 0.553,1.337 L 0.598,1.38 M 0.356,1.479 L 0.368,1.506 L 0.369,1.535 L 0.358,1.563 L 0.338,1.584 L 0.311,1.596 L 0.282,1.597 L 0.255,1.587 L 0.233,1.567 L 0.221,1.54 L 0.22,1.511 L 0.231,1.483 L 0.251,1.462 L 0.278,1.45 L 0.307,1.449 L 0.334,1.459 L 0.356,1.479 M 0.483,1.339 L 0.492,1.359 L 0.492,1.381 L 0.485,1.401 L 0.47,1.417 L 0.45,1.426 L 0.428,1.427 L 0.407,1.419 L 0.391,1.404 L 0.382,1.384 L 0.382,1.362 L 0.389,1.342 L 0.404,1.326 L 0.424,1.317 L 0.446,1.316 L 0.467,1.324 L 0.483,1.339 M 0.281,1.599 L 0.304,1.651 L 0.306,1.708 L 0.286,1.761 L 0.247,1.802 L 0.196,1.825 L 0.139,1.827 L 0.086,1.807 L 0.045,1.768 L 0.022,1.716 L 0.02,1.66 L 0.04,1.607 L 0.079,1.566 L 0.13,1.542 L 0.187,1.541 L 0.24,1.561 L 0.281,1.599" stroke="#000000" stroke-width="0.04" stroke-opacity="0.4"/><path d=" M 0.598,1.697 L 0.62,1.746 L 0.622,1.8 L 0.603,1.851 L 0.566,1.89 L 0.516,1.913 L 0.462,1.914 L 0.412,1.895 L 0.372,1.858 L 0.35,1.809 L 0.348,1.755 L 0.367,1.704 L 0.404,1.665 L 0.454,1.643 L 0.508,1.641 L 0.558,1.66 L 0.598,1.697" fill="#B29C85"/><path d=" M 0.136,1.667 L 0.141,1.679 L 0.142,1.692 L 0.137,1.703 L 0.128,1.713 L 0.117,1.718 L 0.104,1.718 L 0.092,1.714 L 0.083,1.705 L 0.078,1.694 L 0.078,1.681 L 0.082,1.669 L 0.091,1.66 L 0.102,1.655 L 0.115,1.654 L 0.127,1.659 L 0.136,1.667" fill="#B29C85"/><path d=" M 0.445,1.4 L 0.468,1.452 L 0.47,1.51 L 0.45,1.564 L 0.41,1.606 L 0.357,1.63 L 0.3,1.632 L 0.246,1.611 L 0.203,1.572 L 0.18,1.519 L 0.178,1.461 L 0.198,1.407 L 0.238,1.365 L 0.291,1.341 L 0.348,1.34 L 0.402,1.36 L 0.445,1.4" fill="#B29C85"/><path d=" M 0.871,1.478 L 0.878,1.494 L 0.878,1.512 L 0.872,1.528 L 0.86,1.541 L 0.844,1.548 L 0.826,1.549 L 0.81,1.543 L 0.797,1.531 L 0.79,1.515 L 0.789,1.497 L 0.795,1.481 L 0.807,1.468 L 0.824,1.46 L 0.841,1.46 L 0.858,1.466 L 0.871,1.478" fill="#B29C85"/><path d=" M 0.418,1.609 L 0.45,1.679 L 0.452,1.755 L 0.425,1.826 L 0.373,1.882 L 0.303,1.913 L 0.227,1.915 L 0.156,1.889 L 0.101,1.836 L 0.069,1.767 L 0.067,1.691 L 0.094,1.619 L 0.146,1.564 L 0.215,1.533 L 0.292,1.53 L 0.363,1.557 L 0.418,1.609" fill="#B29C85"/><path d=" M 0.393,1.276 L 0.413,1.321 L 0.415,1.371 L 0.397,1.418 L 0.363,1.454 L 0.318,1.474 L 0.268,1.476 L 0.221,1.458 L 0.185,1.424 L 0.165,1.379 L 0.163,1.329 L 0.181,1.283 L 0.215,1.247 L 0.26,1.226 L 0.31,1.224 L 0.356,1.242 L 0.393,1.276" fill="#B29C85"/><path d=" M 0.598,1.38 L 0.624,1.437 L 0.626,1.499 L 0.604,1.558 L 0.561,1.603 L 0.504,1.629 L 0.441,1.631 L 0.383,1.609 L 0.337,1.566 L 0.312,1.509 L 0.31,1.447 L 0.332,1.388 L 0.375,1.343 L 0.432,1.317 L 0.494,1.315 L 0.553,1.337 L 0.598,1.38" fill="#B29C85"/><path d=" M 0.356,1.479 L 0.368,1.506 L 0.369,1.535 L 0.358,1.563 L 0.338,1.584 L 0.311,1.596 L 0.282,1.597 L 0.255,1.587 L 0.233,1.567 L 0.221,1.54 L 0.22,1.511 L 0.231,1.483 L 0.251,1.462 L 0.278,1.45 L 0.307,1.449 L 0.334,1.459 L 0.356,1.479" fill="#B29C85"/><path d=" M 0.483,1.339 L 0.492,1.359 L 0.492,1.381 L 0.485,1.401 L 0.47,1.417 L 0.45,1.426 L 0.428,1.427 L 0.407,1.419 L 0.391,1.404 L 0.382,1.384 L 0.382,1.362 L 0.389,1.342 L 0.404,1.326 L 0.424,1.317 L 0.446,1.316 L 0.467,1.324 L 0.483,1.339" fill="#B29C85"/><path d=" M 0.281,1.599 L 0.304,1.651 L 0.306,1.708 L 0.286,1.761 L 0.247,1.802 L 0.196,1.825 L 0.139,1.827 L 0.086,1.807 L 0.045,1.768 L 0.022,1.716 L 0.02,1.66 L 0.04,1.607 L 0.079,1.566 L 0.13,1.542 L 0.187,1.541 L 0.24,1.561 L 0.281,1.599" fill="#B29C85"/><path d=" M 0.542,1.686 L 0.573,1.715 L 0.59,1.753 L 0.591,1.795 L 0.576,1.835 L 0.548,1.865 L 0.509,1.883 L 0.467,1.884 L 0.428,1.869 L 0.397,1.84 L 0.38,1.802 L 0.379,1.76 L 0.394,1.721 L 0.422,1.69 L 0.461,1.673 L 0.503,1.671 L 0.542,1.686" stroke="#000000" stroke-width="0.02" stroke-opacity="0.4"/><path d=" M 1.812,0.072 L 1.83,0.115 L 1.83,0.162 L 1.812,0.205 L 1.779,0.238 L 1.736,0.256 L 1.689,0.256 L 1.646,0.238 L 1.613,0.205 L 1.595,0.162 L 1.595,0.115 L 1.613,0.072 L 1.646,0.039 L 1.689,0.021 L 1.736,0.021 L 1.779,0.039 L 1.812,0.072 M 1.911,0.525 L 1.914,0.532 L 1.914,0.54 L 1.911,0.547 L 1.905,0.552 L 1.898,0.555 L 1.89,0.555 L 1.883,0.552 L 1.878,0.547 L 1.875,0.54 L 1.875,0.532 L 1.878,0.525 L 1.883,0.519 L 1.89,0.516 L 1.898,0.516 L 1.905,0.519 L 1.911,0.525 M 1.581,0.91 L 1.581,0.911 L 1.581,0.912 L 1.581,0.913 L 1.58,0.913 L 1.579,0.914 L 1.578,0.914 L 1.577,0.913 L 1.576,0.913 L 1.576,0.912 L 1.576,0.911 L 1.576,0.91 L 1.577,0.909 L 1.578,0.909 L 1.579,0.909 L 1.58,0.909 L 1.581,0.91 M 1.556,0.13 L 1.569,0.164 L 1.569,0.2 L 1.556,0.233 L 1.53,0.258 L 1.497,0.272 L 1.461,0.272 L 1.428,0.258 L 1.402,0.233 L 1.389,0.2 L 1.389,0.164 L 1.402,0.13 L 1.428,0.105 L 1.461,0.091 L 1.497,0.091 L 1.53,0.105 L 1.556,0.13 M 1.479,0.207 L 1.501,0.259 L 1.501,0.316 L 1.479,0.368 L 1.439,0.408 L 1.387,0.43 L 1.33,0.43 L 1.278,0.408 L 1.238,0.368 L 1.216,0.316 L 1.216,0.259 L 1.238,0.207 L 1.278,0.167 L 1.33,0.145 L 1.387,0.145 L 1.439,0.167 L 1.479,0.207 M 1.735,0.438 L 1.763,0.504 L 1.763,0.575 L 1.735,0.641 L 1.685,0.692 L 1.619,0.719 L 1.547,0.719 L 1.481,0.692 L 1.43,0.641 L 1.403,0.575 L 1.403,0.504 L 1.43,0.438 L 1.481,0.387 L 1.547,0.36 L 1.619,0.36 L 1.685,0.387 L 1.735,0.438 M 1.784,0.093 L 1.811,0.16 L 1.811,0.232 L 1.783,0.298 L 1.733,0.349 L 1.666,0.376 L 1.594,0.376 L 1.528,0.349 L 1.477,0.298 L 1.449,0.231 L 1.449,0.16 L 1.477,0.093 L 1.528,0.042 L 1.594,0.015 L 1.666,0.015 L 1.733,0.042 L 1.784,0.093 M 1.959,0.223 L 1.98,0.275 L 1.98,0.33 L 1.959,0.381 L 1.919,0.42 L 1.868,0.441 L 1.813,0.441 L 1.762,0.42 L 1.723,0.381 L 1.702,0.33 L 1.702,0.274 L 1.723,0.223 L 1.762,0.184 L 1.813,0.163 L 1.869,0.163 L 1.92,0.184 L 1.959,0.223 M 1.333,0.163 L 1.344,0.19 L 1.344,0.219 L 1.333,0.246 L 1.313,0.266 L 1.286,0.277 L 1.257,0.277 L 1.23,0.266 L 1.21,0.246 L 1.199,0.219 L 1.199,0.19 L 1.21,0.163 L 1.23,0.143 L 1.257,0.132 L 1.286,0.132 L 1.313,0.143 L 1.333,0.163" stroke="#000000" stroke-width="0.04" stroke-opacity="0.4"/><path d=" M 1.812,0.072 L 1.83,0.115 L 1.83,0.162 L 1.812,0.205 L 1.779,0.238 L 1.736,0.256 L 1.689,0.256 L 1.646,0.238 L 1.613,0.205 L 1.595,0.162 L 1.595,0.115 L 1.613,0.072 L 1.646,0.039 L 1.689,0.021 L 1.736,0.021 L 1.779,0.039 L 1.812,0.072" fill="#B29C85"/><path d=" M 1.911,0.525 L 1.914,0.532 L 1.914,0.54 L 1.911,0.547 L 1.905,0.552 L 1.898,0.555 L 1.89,0.555 L 1.883,0.552 L 1.878,0.547 L 1.875,0.54 L 1.875,0.532 L 1.878,0.525 L 1.883,0.519 L 1.89,0.516 L 1.898,0.516 L 1.905,0.519 L 1.911,0.525" fill="#B29C85"/><path d=" M 1.581,0.91 L 1.581,0.911 L 1.581,0.912 L 1.581,0.913 L 1.58,0.913 L 1.579,0.914 L 1.578,0.914 L 1.577,0.913 L 1.576,0.913 L 1.576,0.912 L 1.576,0.911 L 1.576,0.91 L 1.577,0.909 L 1.578,0.909 L 1.579,0.909 L 1.58,0.909 L 1.581,0.91" fill="#B29C85"/><path d=" M 1.556,0.13 L 1.569,0.164 L 1.569,0.2 L 1.556,0.233 L 1.53,0.258 L 1.497,0.272 L 1.461,0.272 L 1.428,0.258 L 1.402,0.233 L 1.389,0.2 L 1.389,0.164 L 1.402,0.13 L 1.428,0.105 L 1.461,0.091 L 1.497,0.091 L 1.53,0.105 L 1.556,0.13" fill="#B29C85"/><path d=" M 1.479,0.207 L 1.501,0.259 L 1.501,0.316 L 1.479,0.368 L 1.439,0.408 L 1.387,0.43 L 1.33,0.43 L 1.278,0.408 L 1.238,0.368 L 1.216,0.316 L 1.216,0.259 L 1.238,0.207 L 1.278,0.167 L 1.33,0.145 L 1.387,0.145 L 1.439,0.167 L 1.479,0.207" fill="#B29C85"/><path d=" M 1.735,0.438 L 1.763,0.504 L 1.763,0.575 L 1.735,0.641 L 1.685,0.692 L 1.619,0.719 L 1.547,0.719 L 1.481,0.692 L 1.43,0.641 L 1.403,0.575 L 1.403,0.504 L 1.43,0.438 L 1.481,0.387 L 1.547,0.36 L 1.619,0.36 L 1.685,0.387 L 1.735,0.438" fill="#B29C85"/><path d=" M 1.784,0.093 L 1.811,0.16 L 1.811,0.232 L 1.783,0.298 L 1.733,0.349 L 1.666,0.376 L 1.594,0.376 L 1.528,0.349 L 1.477,0.298 L 1.449,0.231 L 1.449,0.16 L 1.477,0.093 L 1.528,0.042 L 1.594,0.015 L 1.666,0.015 L 1.733,0.042 L 1.784,0.093" fill="#B29C85"/><path d=" M 1.959,0.223 L 1.98,0.275 L 1.98,0.33 L 1.959,0.381 L 1.919,0.42 L 1.868,0.441 L 1.813,0.441 L 1.762,0.42 L 1.723,0.381 L 1.702,0.33 L 1.702,0.274 L 1.723,0.223 L 1.762,0.184 L 1.813,0.163 L 1.869,0.163 L 1.92,0.184 L 1.959,0.223" fill="#B29C85"/><path d=" M 1.333,0.163 L 1.344,0.19 L 1.344,0.219 L 1.333,0.246 L 1.313,0.266 L 1.286,0.277 L 1.257,0.277 L 1.23,0.266 L 1.21,0.246 L 1.199,0.219 L 1.199,0.19 L 1.21,0.163 L 1.23,0.143 L 1.257,0.132 L 1.286,0.132 L 1.313,0.143 L 1.333,0.163" fill="#B29C85"/><path d=" M 1.765,0.061 L 1.79,0.087 L 1.804,0.12 L 1.804,0.156 L 1.79,0.19 L 1.764,0.216 L 1.731,0.23 L 1.695,0.23 L 1.661,0.216 L 1.635,0.19 L 1.621,0.156 L 1.621,0.12 L 1.635,0.086 L 1.661,0.061 L 1.695,0.047 L 1.731,0.047 L 1.765,0.061" stroke="#000000" stroke-width="0.02" stroke-opacity="0.4"/><path d=" M 1.37,4 L 1.37,3.475 L 1.653,3.475 L 1.653,4 L 1.37,4 M 1.128,3.903 L 1.128,3.4 L 1.443,3.4 L 1.443,3.903 L 1.128,3.903 M 1.398,3.709 L 1.398,3.305 L 1.688,3.305 L 1.688,3.709 L 1.398,3.709" stroke="#000000" stroke-width="0.04" stroke-opacity="0.4"/><path d=" M 1.37,4 L 1.37,3.475 L 1.653,3.475 L 1.653,4 L 1.37,4" fill="#B29C85"/><path d=" M 1.128,3.903 L 1.128,3.4 L 1.443,3.4 L 1.443,3.903 L 1.128,3.903" fill="#B29C85"/><path d=" M 1.398,3.709 L 1.398,3.305 L 1.688,3.305 L 1.688,3.709 L 1.398,3.709" fill="#B29C85"/><path d=" M 1.605,3.952 L 1.418,3.952 L 1.418,3.523 L 1.605,3.523 L 1.605,3.952" stroke="#000000" stroke-width="0.02" stroke-opacity="0.4"/><path d=" M 0,2.289 L 0,2.044 L 0.145,2.044 L 0.145,2.289 L 0,2.289 M 0.348,2.756 L 0.348,2.193 L 0.703,2.193 L 0.703,2.756 L 0.348,2.756" stroke="#000000" stroke-width="0.04" stroke-opacity="0.4"/><path d=" M 0,2.289 L 0,2.044 L 0.145,2.044 L 0.145,2.289 L 0,2.289" fill="#B29C85"/><path d=" M 0.348,2.756 L 0.348,2.193 L 0.703,2.193 L 0.703,2.756 L 0.348,2.756" fill="#B29C85"/><path d=" M 0.121,2.265 L 0.024,2.265 L 0.024,2.068 L 0.121,2.068 L 0.121,2.265" stroke="#000000" stroke-width="0.02" stroke-opacity="0.4"/></g><g><path d=" M 0,0"/><path d=" M 0.9,0 L 1,0 L 1,0.5 L 0.9,0.5 L 0.9,0" fill="#A58F7D" stroke="#000000" stroke-width="0.02"/><path d=" M 0.8,0 L 0.9,0 L 0.9,0.5 L 0.8,0.5 L 0.8,0" fill="#A58F7D" stroke="#000000" stroke-width="0.02"/><path d=" M 0.7,0 L 0.8,0 L 0.8,0.5 L 0.7,0.5 L 0.7,0" fill="#A58F7D" stroke="#000000" stroke-width="0.02"/><path d=" M 0.6,0 L 0.7,0 L 0.7,0.5 L 0.6,0.5 L 0.6,0" fill="#A58F7D" stroke="#000000" stroke-width="0.02"/><path d=" M 0.5,0 L 0.6,0 L 0.6,0.5 L 0.5,0.5 L 0.5,0" fill="#A58F7D" stroke="#000000" stroke-width="0.02"/><path d=" M 0,0.5 L 0.5,0.5 L 0.5,0.6 L 0,0.6 L 0,0.5" fill="#A58F7D" stroke="#000000" stroke-width="0.02"/><path d=" M 0,0.6 L 0.5,0.6 L 0.5,0.7 L 0,0.7 L 0,0.6" fill="#A58F7D" stroke="#000000" stroke-width="0.02"/><path d=" M 0,0.7 L 0.5,0.7 L 0.5,0.8 L 0,0.8 L 0,0.7" fill="#A58F7D" stroke="#000000" stroke-width="0.02"/><path d=" M 0,0.8 L 0.5,0.8 L 0.5,0.9 L 0,0.9 L 0,0.8" fill="#A58F7D" stroke="#000000" stroke-width="0.02"/><path d=" M 0,0.9 L 0.5,0.9 L 0.5,1 L 0,1 L 0,0.9" fill="#A58F7D" stroke="#000000" stroke-width="0.02"/><path d=" M 0,0 L 0.5,0 L 0.5,0.5 L 0,0.5 L 0,0" fill="#A58F7D" stroke="#000000" stroke-width="0.02"/><path d=" M 0.5,0.5 L 0,0.366 M 0.5,0.5 L 0,0.211 M 0.5,0.5 L 0,0 M 0.5,0.5 L 0.211,0 M 0.5,0.5 L 0.366,0" stroke="#000000" stroke-width="0.02"/><path d=" M 0.25,0.75 L 0.25,0.539 L 0.258,0.438 L 0.273,0.375 L 0.297,0.328 L 0.328,0.297 L 0.367,0.273 L 0.414,0.258 L 0.469,0.25 L 0.531,0.25 L 0.594,0.25 L 0.656,0.25 L 0.719,0.25 L 0.781,0.25 L 0.852,0.25 L 0.93,0.25 L 1.039,0.25 L 1.25,0.25 M 1.25,0.25 L 1.169,0.191 M 1.25,0.25 L 1.169,0.309" stroke="#000000" stroke-width="0.02"/></g><g style="mix-blend-mode: multiply"><path d=" M 0,0"/><path d=" M 0.5,1.5 L 0,1.5 L 0,0.5 L 0.5,0.5 L 0.5,1.5" fill="url(#grad1)"/><path d=" M 0,0.5 L 0,0 L 0.5,0 L 0.5,0.5 L 0,0.5" fill="url(#grad2)"/><path d=" M 0.5,0.5 L 0.5,0 L 1.5,0 L 1.5,0.5 L 0.5,0.5" fill="url(#grad3)"/><path d=" M 1.5,0 L 2,0 L 2,0.5 L 1.5,0.5 L 1.5,0" fill="url(#grad4)"/><path d=" M 1.5,0.5 L 2,0.5 L 2,1.5 L 1.5,1.5 L 1.5,0.5" fill="url(#grad5)"/><path d=" M 2,1.5 L 2,2 L 1.5,2 L 1.5,1.5 L 2,1.5" fill="url(#grad6)"/><path d=" M 1.5,1.5 L 1.5,2 L 0.5,2 L 0.5,1.5 L 1.5,1.5" fill="url(#grad7)"/><path d=" M 0.5,2 L 0,2 L 0,1.5 L 0.5,1.5 L 0.5,2" fill="url(#grad8)"/><path d=" M 2.5,2.5 L 3,2.5 L 3,3.5 L 2.5,3.5 L 2.5,2.5" fill="url(#grad9)"/><path d=" M 3,3.5 L 3,4 L 2.5,4 L 2.5,3.5 L 3,3.5" fill="url(#grad10)"/><path d=" M 2.5,3.5 L 2.5,4 L 1.5,4 L 1.5,3.5 L 2.5,3.5" fill="url(#grad11)"/><path d=" M 1.5,3.5 L 1.5,4 L 0.5,4 L 0.5,3.5 L 1.5,3.5" fill="url(#grad12)"/><path d=" M 0.5,4 L 0,4 L 0,3.5 L 0.5,3.5 L 0.5,4" fill="url(#grad13)"/><path d=" M 0.5,3.5 L 0,3.5 L 0,2.5 L 0.5,2.5 L 0.5,3.5" fill="url(#grad14)"/><path d=" M 0,2.5 L 0,2 L 0.5,2 L 0.5,2.5 L 0,2.5" fill="url(#grad15)"/><path d=" M 0.5,2.5 L 0.5,2 L 1.5,2 L 1.5,2.5 L 0.5,2.5" fill="url(#grad16)"/><path d=" M 1.5,2.5 L 1.5,2 L 2.5,2 L 2.5,2.5 L 1.5,2.5" fill="url(#grad17)"/><path d=" M 2.5,2 L 3,2 L 3,2.5 L 2.5,2.5 L 2.5,2" fill="url(#grad18)"/><path d=" M 2.5,1.5 L 2,1.5 L 2,0.5 L 2.5,0.5 L 2.5,1.5" fill="url(#grad19)"/><path d=" M 2,0.5 L 2,0 L 2.5,0 L 2.5,0.5 L 2,0.5" fill="url(#grad20)"/><path d=" M 2.5,0 L 3,0 L 3,0.5 L 2.5,0.5 L 2.5,0" fill="url(#grad21)"/><path d=" M 2.5,0.5 L 3,0.5 L 3,1.5 L 2.5,1.5 L 2.5,0.5" fill="url(#grad22)"/><path d=" M 3,1.5 L 3,2 L 2.5,2 L 2.5,1.5 L 3,1.5" fill="url(#grad23)"/><path d=" M 2.5,2 L 2,2 L 2,1.5 L 2.5,1.5 L 2.5,2" fill="url(#grad24)"/><path d=" M 1,2 L 0,2 L 0,1 L 0,0 L 1,0 L 2,0 L 2,1 L 2,2 L 1,2" fill="url(#grad25)"/><path d=" M 1,2 L 0,2 L 0,1 L 0,0 L 1,0 L 2,0 L 2,1 L 2,2 L 1,2" fill="url(#grad26)"/><path d=" M 1,2 L 0,2 L 0,1 L 0,0 L 1,0 L 2,0 L 2,1 L 2,2 L 1,2" fill="url(#grad27)"/><path d=" M 1,2 L 0,2 L 0,1 L 0,0 L 1,0 L 2,0 L 2,1 L 2,2 L 1,2" fill="url(#grad28)"/><path d=" M 1,2 L 0,2 L 0,1 L 0,0 L 1,0 L 2,0 L 2,1 L 2,2 L 1,2" fill="url(#grad29)"/><path d=" M 2,2 L 3,2 L 3,3 L 3,4 L 2,4 L 1,4 L 0,4 L 0,3 L 0,2 L 1,2 L 2,2" fill="url(#grad30)"/><path d=" M 3,2 L 2,2 L 2,1 L 2,0 L 3,0 L 3,1 L 3,2" fill="url(#grad31)"/></g><g><path d=" M 0,0"/><path d=" M 3.013,3.945 L 3.013,4.205 L 1.987,4.205 L 1.987,3.945 L 3.013,3.945" fill="#000000" stroke="#000000" stroke-width="0.04" stroke-linejoin="miter" stroke-linecap="square"/><path d=" M 2.908,3.908 L 3.093,3.908 L 3.093,4.093 L 2.908,4.093 L 2.908,3.908" fill="#000000" stroke="#000000" stroke-width="0.04" stroke-linejoin="miter" stroke-linecap="square"/><path d=" M 2.013,3.945 L 2.013,4.205 L 0.987,4.205 L 0.987,3.945 L 2.013,3.945" fill="#000000" stroke="#000000" stroke-width="0.04" stroke-linejoin="miter" stroke-linecap="square"/><path d=" M 1.908,3.908 L 2.093,3.908 L 2.093,4.093 L 1.908,4.093 L 1.908,3.908" fill="#000000" stroke="#000000" stroke-width="0.04" stroke-linejoin="miter" stroke-linecap="square"/><path d=" M 1.013,3.945 L 1.013,4.205 L -0.013,4.205 L -0.013,3.945 L 1.013,3.945" fill="#000000" stroke="#000000" stroke-width="0.04" stroke-linejoin="miter" stroke-linecap="square"/><path d=" M 0.908,3.908 L 1.093,3.908 L 1.093,4.093 L 0.908,4.093 L 0.908,3.908" fill="#000000" stroke="#000000" stroke-width="0.04" stroke-linejoin="miter" stroke-linecap="square"/><path d=" M 0.055,4.013 L -0.205,4.013 L -0.205,2.987 L 0.055,2.987 L 0.055,4.013" fill="#000000" stroke="#000000" stroke-width="0.04" stroke-linejoin="miter" stroke-linecap="square"/><path d=" M -0.092,3.908 L 0.092,3.908 L 0.092,4.093 L -0.092,4.093 L -0.092,3.908" fill="#000000" stroke="#000000" stroke-width="0.04" stroke-linejoin="miter" stroke-linecap="square"/><path d=" M 0.055,3.013 L -0.205,3.013 L -0.205,1.987 L 0.055,1.987 L 0.055,3.013" fill="#000000" stroke="#000000" stroke-width="0.04" stroke-linejoin="miter" stroke-linecap="square"/><path d=" M -0.092,2.908 L 0.092,2.908 L 0.092,3.093 L -0.092,3.093 L -0.092,2.908" fill="#000000" stroke="#000000" stroke-width="0.04" stroke-linejoin="miter" stroke-linecap="square"/><path d=" M 0.055,2.013 L -0.205,2.013 L -0.205,0.987 L 0.055,0.987 L 0.055,2.013" fill="#000000" stroke="#000000" stroke-width="0.04" stroke-linejoin="miter" stroke-linecap="square"/><path d=" M -0.092,1.908 L 0.092,1.908 L 0.092,2.093 L -0.092,2.093 L -0.092,1.908" fill="#000000" stroke="#000000" stroke-width="0.04" stroke-linejoin="miter" stroke-linecap="square"/><path d=" M 0.055,1.013 L -0.205,1.013 L -0.205,-0.013 L 0.055,-0.013 L 0.055,1.013" fill="#000000" stroke="#000000" stroke-width="0.04" stroke-linejoin="miter" stroke-linecap="square"/><path d=" M -0.092,0.908 L 0.092,0.908 L 0.092,1.093 L -0.092,1.093 L -0.092,0.908" fill="#000000" stroke="#000000" stroke-width="0.04" stroke-linejoin="miter" stroke-linecap="square"/><path d=" M -0.013,0.055 L -0.013,-0.205 L 1.013,-0.205 L 1.013,0.055 L -0.013,0.055" fill="#000000" stroke="#000000" stroke-width="0.04" stroke-linejoin="miter" stroke-linecap="square"/><path d=" M -0.092,-0.092 L 0.092,-0.092 L 0.092,0.092 L -0.092,0.092 L -0.092,-0.092" fill="#000000" stroke="#000000" stroke-width="0.04" stroke-linejoin="miter" stroke-linecap="square"/><path d=" M 0.987,0.055 L 0.987,-0.205 L 2.013,-0.205 L 2.013,0.055 L 0.987,0.055" fill="#000000" stroke="#000000" stroke-width="0.04" stroke-linejoin="miter" stroke-linecap="square"/><path d=" M 0.908,-0.092 L 1.093,-0.092 L 1.093,0.092 L 0.908,0.092 L 0.908,-0.092" fill="#000000" stroke="#000000" stroke-width="0.04" stroke-linejoin="miter" stroke-linecap="square"/><path d=" M 1.987,0.055 L 1.987,-0.205 L 3.013,-0.205 L 3.013,0.055 L 1.987,0.055" fill="#000000" stroke="#000000" stroke-width="0.04" stroke-linejoin="miter" stroke-linecap="square"/><path d=" M 1.908,-0.092 L 2.093,-0.092 L 2.093,0.092 L 1.908,0.092 L 1.908,-0.092" fill="#000000" stroke="#000000" stroke-width="0.04" stroke-linejoin="miter" stroke-linecap="square"/><path d=" M 2.945,-0.013 L 3.205,-0.013 L 3.205,1.013 L 2.945,1.013 L 2.945,-0.013" fill="#000000" stroke="#000000" stroke-width="0.04" stroke-linejoin="miter" stroke-linecap="square"/><path d=" M 2.908,-0.092 L 3.093,-0.092 L 3.093,0.092 L 2.908,0.092 L 2.908,-0.092" fill="#000000" stroke="#000000" stroke-width="0.04" stroke-linejoin="miter" stroke-linecap="square"/><path d=" M 2.945,0.987 L 3.205,0.987 L 3.205,2.013 L 2.945,2.013 L 2.945,0.987" fill="#000000" stroke="#000000" stroke-width="0.04" stroke-linejoin="miter" stroke-linecap="square"/><path d=" M 2.908,0.908 L 3.093,0.908 L 3.093,1.093 L 2.908,1.093 L 2.908,0.908" fill="#000000" stroke="#000000" stroke-width="0.04" stroke-linejoin="miter" stroke-linecap="square"/><path d=" M 2.945,1.987 L 3.205,1.987 L 3.205,3.013 L 2.945,3.013 L 2.945,1.987" fill="#000000" stroke="#000000" stroke-width="0.04" stroke-linejoin="miter" stroke-linecap="square"/><path d=" M 2.908,1.908 L 3.093,1.908 L 3.093,2.093 L 2.908,2.093 L 2.908,1.908" fill="#000000" stroke="#000000" stroke-width="0.04" stroke-linejoin="miter" stroke-linecap="square"/><path d=" M 2.945,2.987 L 3.205,2.987 L 3.205,4.013 L 2.945,4.013 L 2.945,2.987" fill="#000000" stroke="#000000" stroke-width="0.04" stroke-linejoin="miter" stroke-linecap="square"/><path d=" M 2.908,2.908 L 3.093,2.908 L 3.093,3.093 L 2.908,3.093 L 2.908,2.908" fill="#000000" stroke="#000000" stroke-width="0.04" stroke-linejoin="miter" stroke-linecap="square"/><path d=" M 0,4 L 0.3,4 L 0.3,4.3 L -0.3,4.3 L -0.3,3.7 L 0,3.7 M 0,0 L 0,0.3 L -0.3,0.3 L -0.3,-0.3 L 0.3,-0.3 L 0.3,0 M 3,0 L 2.7,0 L 2.7,-0.3 L 3.3,-0.3 L 3.3,0.3 L 3,0.3 M 3,4 L 3,3.7 L 3.3,3.7 L 3.3,4.3 L 2.7,4.3 L 2.7,4" fill="#000000" stroke="#000000" stroke-width="0.04" stroke-linejoin="miter" stroke-linecap="square"/><path d=" M 1.945,-0.055 L 2.055,-0.055 L 2.055,1.055 L 1.945,1.055 L 1.945,-0.055" fill="#000000" stroke="#000000" stroke-width="0.04" stroke-linejoin="miter" stroke-linecap="square"/><path d=" M 1.908,-0.092 L 2.093,-0.092 L 2.093,0.092 L 1.908,0.092 L 1.908,-0.092" fill="#000000" stroke="#000000" stroke-width="0.04" stroke-linejoin="miter" stroke-linecap="square"/><path d=" M 1.945,1 L 2.055,1 L 2.055,1.33 L 1.945,1.33 L 1.945,1 M 1.945,1.67 L 2.055,1.67 L 2.055,2 L 1.945,2 L 1.945,1.67" fill="#000000" stroke="#000000" stroke-width="0.04" stroke-linejoin="miter" stroke-linecap="square"/><path d=" M 1.908,0.908 L 2.093,0.908 L 2.093,1.093 L 1.908,1.093 L 1.908,0.908" fill="#000000" stroke="#000000" stroke-width="0.04" stroke-linejoin="miter" stroke-linecap="square"/><path d=" M 2.055,1.945 L 2.055,2.055 L 0.945,2.055 L 0.945,1.945 L 2.055,1.945" fill="#000000" stroke="#000000" stroke-width="0.04" stroke-linejoin="miter" stroke-linecap="square"/><path d=" M 1.908,1.908 L 2.093,1.908 L 2.093,2.093 L 1.908,2.093 L 1.908,1.908" fill="#000000" stroke="#000000" stroke-width="0.04" stroke-linejoin="miter" stroke-linecap="square"/><path d=" M 1.055,1.945 L 1.055,2.055 L -0.055,2.055 L -0.055,1.945 L 1.055,1.945" fill="#000000" stroke="#000000" stroke-width="0.04" stroke-linejoin="miter" stroke-linecap="square"/><path d=" M 0.908,1.908 L 1.093,1.908 L 1.093,2.093 L 0.908,2.093 L 0.908,1.908" fill="#000000" stroke="#000000" stroke-width="0.04" stroke-linejoin="miter" stroke-linecap="square"/><path d=" M 2,2.055 L 2,1.945 L 2.33,1.945 L 2.33,2.055 L 2,2.055 M 2.67,2.055 L 2.67,1.945 L 3,1.945 L 3,2.055 L 2.67,2.055" fill="#000000" stroke="#000000" stroke-width="0.04" stroke-linejoin="miter" stroke-linecap="square"/><path d=" M 1.908,1.908 L 2.093,1.908 L 2.093,2.093 L 1.908,2.093 L 1.908,1.908" fill="#000000" stroke="#000000" stroke-width="0.04" stroke-linejoin="miter" stroke-linecap="square"/><path d=" M 3.013,3.945 L 3.013,4.205 L 1.987,4.205 L 1.987,3.945 L 3.013,3.945" fill="#B2B2B2"/><path d=" M 2.908,3.908 L 3.093,3.908 L 3.093,4.093 L 2.908,4.093 L 2.908,3.908" fill="#B2B2B2"/><path d=" M 2.013,3.945 L 2.013,4.205 L 0.987,4.205 L 0.987,3.945 L 2.013,3.945" fill="#B2B2B2"/><path d=" M 1.908,3.908 L 2.093,3.908 L 2.093,4.093 L 1.908,4.093 L 1.908,3.908" fill="#B2B2B2"/><path d=" M 1.013,3.945 L 1.013,4.205 L -0.013,4.205 L -0.013,3.945 L 1.013,3.945" fill="#B2B2B2"/><path d=" M 0.908,3.908 L 1.093,3.908 L 1.093,4.093 L 0.908,4.093 L 0.908,3.908" fill="#B2B2B2"/><path d=" M 0.055,4.013 L -0.205,4.013 L -0.205,2.987 L 0.055,2.987 L 0.055,4.013" fill="#B2B2B2"/><path d=" M -0.092,3.908 L 0.092,3.908 L 0.092,4.093 L -0.092,4.093 L -0.092,3.908" fill="#B2B2B2"/><path d=" M 0.055,3.013 L -0.205,3.013 L -0.205,1.987 L 0.055,1.987 L 0.055,3.013" fill="#B2B2B2"/><path d=" M -0.092,2.908 L 0.092,2.908 L 0.092,3.093 L -0.092,3.093 L -0.092,2.908" fill="#B2B2B2"/><path d=" M 0.055,2.013 L -0.205,2.013 L -0.205,0.987 L 0.055,0.987 L 0.055,2.013" fill="#B2B2B2"/><path d=" M -0.092,1.908 L 0.092,1.908 L 0.092,2.093 L -0.092,2.093 L -0.092,1.908" fill="#B2B2B2"/><path d=" M 0.055,1.013 L -0.205,1.013 L -0.205,-0.013 L 0.055,-0.013 L 0.055,1.013" fill="#B2B2B2"/><path d=" M -0.092,0.908 L 0.092,0.908 L 0.092,1.093 L -0.092,1.093 L -0.092,0.908" fill="#B2B2B2"/><path d=" M -0.013,0.055 L -0.013,-0.205 L 1.013,-0.205 L 1.013,0.055 L -0.013,0.055" fill="#B2B2B2"/><path d=" M -0.092,-0.092 L 0.092,-0.092 L 0.092,0.092 L -0.092,0.092 L -0.092,-0.092" fill="#B2B2B2"/><path d=" M 0.987,0.055 L 0.987,-0.205 L 2.013,-0.205 L 2.013,0.055 L 0.987,0.055" fill="#B2B2B2"/><path d=" M 0.908,-0.092 L 1.093,-0.092 L 1.093,0.092 L 0.908,0.092 L 0.908,-0.092" fill="#B2B2B2"/><path d=" M 1.987,0.055 L 1.987,-0.205 L 3.013,-0.205 L 3.013,0.055 L 1.987,0.055" fill="#B2B2B2"/><path d=" M 1.908,-0.092 L 2.093,-0.092 L 2.093,0.092 L 1.908,0.092 L 1.908,-0.092" fill="#B2B2B2"/><path d=" M 2.945,-0.013 L 3.205,-0.013 L 3.205,1.013 L 2.945,1.013 L 2.945,-0.013" fill="#B2B2B2"/><path d=" M 2.908,-0.092 L 3.093,-0.092 L 3.093,0.092 L 2.908,0.092 L 2.908,-0.092" fill="#B2B2B2"/><path d=" M 2.945,0.987 L 3.205,0.987 L 3.205,2.013 L 2.945,2.013 L 2.945,0.987" fill="#B2B2B2"/><path d=" M 2.908,0.908 L 3.093,0.908 L 3.093,1.093 L 2.908,1.093 L 2.908,0.908" fill="#B2B2B2"/><path d=" M 2.945,1.987 L 3.205,1.987 L 3.205,3.013 L 2.945,3.013 L 2.945,1.987" fill="#B2B2B2"/><path d=" M 2.908,1.908 L 3.093,1.908 L 3.093,2.093 L 2.908,2.093 L 2.908,1.908" fill="#B2B2B2"/><path d=" M 2.945,2.987 L 3.205,2.987 L 3.205,4.013 L 2.945,4.013 L 2.945,2.987" fill="#B2B2B2"/><path d=" M 2.908,2.908 L 3.093,2.908 L 3.093,3.093 L 2.908,3.093 L 2.908,2.908" fill="#B2B2B2"/><path d=" M 0,4 L 0.3,4 L 0.3,4.3 L -0.3,4.3 L -0.3,3.7 L 0,3.7 M 0,0 L 0,0.3 L -0.3,0.3 L -0.3,-0.3 L 0.3,-0.3 L 0.3,0 M 3,0 L 2.7,0 L 2.7,-0.3 L 3.3,-0.3 L 3.3,0.3 L 3,0.3 M 3,4 L 3,3.7 L 3.3,3.7 L 3.3,4.3 L 2.7,4.3 L 2.7,4" fill="#B2B2B2"/><path d=" M 1.945,-0.055 L 2.055,-0.055 L 2.055,1.055 L 1.945,1.055 L 1.945,-0.055" fill="#B2B2B2"/><path d=" M 1.908,-0.092 L 2.093,-0.092 L 2.093,0.092 L 1.908,0.092 L 1.908,-0.092" fill="#B2B2B2"/><path d=" M 1.945,1 L 2.055,1 L 2.055,1.33 L 1.945,1.33 L 1.945,1 M 1.945,1.67 L 2.055,1.67 L 2.055,2 L 1.945,2 L 1.945,1.67" fill="#B2B2B2"/><path d=" M 1.908,0.908 L 2.093,0.908 L 2.093,1.093 L 1.908,1.093 L 1.908,0.908" fill="#B2B2B2"/><path d=" M 2.055,1.945 L 2.055,2.055 L 0.945,2.055 L 0.945,1.945 L 2.055,1.945" fill="#B2B2B2"/><path d=" M 1.908,1.908 L 2.093,1.908 L 2.093,2.093 L 1.908,2.093 L 1.908,1.908" fill="#B2B2B2"/><path d=" M 1.055,1.945 L 1.055,2.055 L -0.055,2.055 L -0.055,1.945 L 1.055,1.945" fill="#B2B2B2"/><path d=" M 0.908,1.908 L 1.093,1.908 L 1.093,2.093 L 0.908,2.093 L 0.908,1.908" fill="#B2B2B2"/><path d=" M 2,2.055 L 2,1.945 L 2.33,1.945 L 2.33,2.055 L 2,2.055 M 2.67,2.055 L 2.67,1.945 L 3,1.945 L 3,2.055 L 2.67,2.055" fill="#B2B2B2"/><path d=" M 1.908,1.908 L 2.093,1.908 L 2.093,2.093 L 1.908,2.093 L 1.908,1.908" fill="#B2B2B2"/></g><g><path d=" M 0,0"/><path d=" M 0.4,-0.075 L 0.6,-0.075" stroke="#000000" stroke-width="0.3" stroke-linejoin="round" stroke-linecap="butt"/><path d=" M 0.42,-0.075 L 0.58,-0.075" stroke="#8C8C8C" stroke-width="0.26" stroke-linejoin="round" stroke-linecap="butt"/><path d=" M 1.4,-0.075 L 1.6,-0.075" stroke="#000000" stroke-width="0.3" stroke-linejoin="round" stroke-linecap="butt"/><path d=" M 1.42,-0.075 L 1.58,-0.075" stroke="#8C8C8C" stroke-width="0.26" stroke-linejoin="round" stroke-linecap="butt"/><path d=" M -0.075,1.6 L -0.075,1.4" stroke="#000000" stroke-width="0.3" stroke-linejoin="round" stroke-linecap="butt"/><path d=" M -0.075,1.58 L -0.075,1.42" stroke="#8C8C8C" stroke-width="0.26" stroke-linejoin="round" stroke-linecap="butt"/><path d=" M -0.075,0.6 L -0.075,0.4" stroke="#000000" stroke-width="0.3" stroke-linejoin="round" stroke-linecap="butt"/><path d=" M -0.075,0.58 L -0.075,0.42" stroke="#8C8C8C" stroke-width="0.26" stroke-linejoin="round" stroke-linecap="butt"/></g><g><path d=" M 0,0"/></g></g><g stroke="#8B796B" stroke-width="2"><path d=" M 0,0"/><g transform="translate(1 1.5) scale(0.013 0.013)"><path d=" M 0,0"/><text dominant-baseline="text-before-edge" style="font: 28px Share Tech" fill="#E5D6B7" transform="translate(-33.758 -27)"><tspan x="2" y="2">Guard
</tspan><tspan x="5" y="20">room</tspan></text></g><g transform="translate(1.5 3) scale(0.022 0.022)"><path d=" M 0,0"/><text dominant-baseline="text-before-edge" style="font: 28px Share Tech" fill="#E5D6B7" transform="translate(-54.908 -27)"><tspan x="14" y="2">Officers
</tspan><tspan x="2" y="20">chambers</tspan></text></g><g transform="translate(2.5 1) rotate(-90 0 0) scale(0.013 0.013)"><path d=" M 0,0"/><text dominant-baseline="text-before-edge" style="font: 28px Share Tech" fill="#E5D6B7" transform="translate(-37.042 -27)"><tspan x="12" y="2">Roof
</tspan><tspan x="2" y="20">access</tspan></text></g></g><g><path d=" M 0,0"/><g transform="translate(1 1.5) scale(0.013 0.013)"><path d=" M 0,0"/><text dominant-baseline="text-before-edge" style="font: 28px Share Tech" fill="#E5D6B7" transform="translate(-33.758 -27)"><tspan x="2" y="2">Guard
</tspan><tspan x="5" y="20">room</tspan></text></g><g transform="translate(1.5 3) scale(0.022 0.022)"><path d=" M 0,0"/><text dominant-baseline="text-before-edge" style="font: 28px Share Tech" fill="#E5D6B7" transform="translate(-54.908 -27)"><tspan x="14" y="2">Officers
</tspan><tspan x="2" y="20">chambers</tspan></text></g><g transform="translate(2.5 1) rotate(-90 0 0) scale(0.013 0.013)"><path d=" M 0,0"/><text dominant-baseline="text-before-edge" style="font: 28px Share Tech" fill="#E5D6B7" transform="translate(-37.042 -27)"><tspan x="12" y="2">Roof
</tspan><tspan x="2" y="20">access</tspan></text></g></g></g><style><![CDATA[@import url("https://fonts.googleapis.com/css2?family=Share+Tech&display=swap");]]></style><defs><linearGradient id="grad1" gradientUnits="userSpaceOnUse" x1="-0.5" y1="1" x2="0.5" y2="1"><stop offset="0%" stop-color="#333333" stop-opacity="0"/><stop offset="17%" stop-color="#333333" stop-opacity="0.1"/><stop offset="33%" stop-color="#333333"/><stop offset="50%" stop-color="#333333" stop-opacity="0.4"/><stop offset="67%" stop-color="#333333" stop-opacity="0.30000000000000004"/><stop offset="83%" stop-color="#333333" stop-opacity="0.1"/><stop offset="100%" stop-color="#333333" stop-opacity="0"/></linearGradient><radialGradient id="grad2" gradientUnits="userSpaceOnUse" cx="0.5" cy="0.5" r="0.5"><stop offset="0%" stop-color="#333333" stop-opacity="0"/><stop offset="33%" stop-color="#333333" stop-opacity="0.1"/><stop offset="67%" stop-color="#333333" stop-opacity="0.30000000000000004"/><stop offset="100%" stop-color="#333333" stop-opacity="0.4"/></radialGradient><linearGradient id="grad3" gradientUnits="userSpaceOnUse" x1="1" y1="-0.5" x2="1" y2="0.5"><stop offset="0%" stop-color="#333333" stop-opacity="0"/><stop offset="17%" stop-color="#333333" stop-opacity="0.1"/><stop offset="33%" stop-color="#333333"/><stop offset="50%" stop-color="#333333" stop-opacity="0.4"/><stop offset="67%" stop-color="#333333" stop-opacity="0.30000000000000004"/><stop offset="83%" stop-color="#333333" stop-opacity="0.1"/><stop offset="100%" stop-color="#333333" stop-opacity="0"/></linearGradient><radialGradient id="grad4" gradientUnits="userSpaceOnUse" cx="1.5" cy="0.5" r="0.5"><stop offset="0%" stop-color="#333333" stop-opacity="0"/><stop offset="33%" stop-color="#333333" stop-opacity="0.1"/><stop offset="67%" stop-color="#333333" stop-opacity="0.30000000000000004"/><stop offset="100%" stop-color="#333333" stop-opacity="0.4"/></radialGradient><linearGradient id="grad5" gradientUnits="userSpaceOnUse" x1="2.5" y1="1" x2="1.5" y2="1"><stop offset="0%" stop-color="#333333" stop-opacity="0"/><stop offset="17%" stop-color="#333333" stop-opacity="0.1"/><stop offset="33%" stop-color="#333333"/><stop offset="50%" stop-color="#333333" stop-opacity="0.4"/><stop offset="67%" stop-color="#333333" stop-opacity="0.30000000000000004"/><stop offset="83%" stop-color="#333333" stop-opacity="0.1"/><stop offset="100%" stop-color="#333333" stop-opacity="0"/></linearGradient><radialGradient id="grad6" gradientUnits="userSpaceOnUse" cx="1.5" cy="1.5" r="0.5"><stop offset="0%" stop-color="#333333" stop-opacity="0"/><stop offset="33%" stop-color="#333333" stop-opacity="0.1"/><stop offset="67%" stop-color="#333333" stop-opacity="0.30000000000000004"/><stop offset="100%" stop-color="#333333" stop-opacity="0.4"/></radialGradient><linearGradient id="grad7" gradientUnits="userSpaceOnUse" x1="1" y1="2.5" x2="1" y2="1.5"><stop offset="0%" stop-color="#333333" stop-opacity="0"/><stop offset="17%" stop-color="#333333" stop-opacity="0.1"/><stop offset="33%" stop-color="#333333"/><stop offset="50%" stop-color="#333333" stop-opacity="0.4"/><stop offset="67%" stop-color="#333333" stop-opacity="0.30000000000000004"/><stop offset="83%" stop-color="#333333" stop-opacity="0.1"/><stop offset="100%" stop-color="#333333" stop-opacity="0"/></linearGradient><radialGradient id="grad8" gradientUnits="userSpaceOnUse" cx="0.5" cy="1.5" r="0.5"><stop offset="0%" stop-color="#333333" stop-opacity="0"/><stop offset="33%" stop-color="#333333" stop-opacity="0.1"/><stop offset="67%" stop-color="#333333" stop-opacity="0.30000000000000004"/><stop offset="100%" stop-color="#333333" stop-opacity="0.4"/></radialGradient><linearGradient id="grad9" gradientUnits="userSpaceOnUse" x1="3.5" y1="3" x2="2.5" y2="3"><stop offset="0%" stop-color="#333333" stop-opacity="0"/><stop offset="17%" stop-color="#333333" stop-opacity="0.1"/><stop offset="33%" stop-color="#333333"/><stop offset="50%" stop-color="#333333" stop-opacity="0.4"/><stop offset="67%" stop-color="#333333" stop-opacity="0.30000000000000004"/><stop offset="83%" stop-color="#333333" stop-opacity="0.1"/><stop offset="100%" stop-color="#333333" stop-opacity="0"/></linearGradient><radialGradient id="grad10" gradientUnits="userSpaceOnUse" cx="2.5" cy="3.5" r="0.5"><stop offset="0%" stop-color="#333333" stop-opacity="0"/><stop offset="33%" stop-color="#333333" stop-opacity="0.1"/><stop offset="67%" stop-color="#333333" stop-opacity="0.30000000000000004"/><stop offset="100%" stop-color="#333333" stop-opacity="0.4"/></radialGradient><linearGradient id="grad11" gradientUnits="userSpaceOnUse" x1="2" y1="4.5" x2="2" y2="3.5"><stop offset="0%" stop-color="#333333" stop-opacity="0"/><stop offset="17%" stop-color="#333333" stop-opacity="0.1"/><stop offset="33%" stop-color="#333333"/><stop offset="50%" stop-color="#333333" stop-opacity="0.4"/><stop offset="67%" stop-color="#333333" stop-opacity="0.30000000000000004"/><stop offset="83%" stop-color="#333333" stop-opacity="0.1"/><stop offset="100%" stop-color="#333333" stop-opacity="0"/></linearGradient><linearGradient id="grad12" gradientUnits="userSpaceOnUse" x1="1" y1="4.5" x2="1" y2="3.5"><stop offset="0%" stop-color="#333333" stop-opacity="0"/><stop offset="17%" stop-color="#333333" stop-opacity="0.1"/><stop offset="33%" stop-color="#333333"/><stop offset="50%" stop-color="#333333" stop-opacity="0.4"/><stop offset="67%" stop-color="#333333" stop-opacity="0.30000000000000004"/><stop offset="83%" stop-color="#333333" stop-opacity="0.1"/><stop offset="100%" stop-color="#333333" stop-opacity="0"/></linearGradient><radialGradient id="grad13" gradientUnits="userSpaceOnUse" cx="0.5" cy="3.5" r="0.5"><stop offset="0%" stop-color="#333333" stop-opacity="0"/><stop offset="33%" stop-color="#333333" stop-opacity="0.1"/><stop offset="67%" stop-color="#333333" stop-opacity="0.30000000000000004"/><stop offset="100%" stop-color="#333333" stop-opacity="0.4"/></radialGradient><linearGradient id="grad14" gradientUnits="userSpaceOnUse" x1="-0.5" y1="3" x2="0.5" y2="3"><stop offset="0%" stop-color="#333333" stop-opacity="0"/><stop offset="17%" stop-color="#333333" stop-opacity="0.1"/><stop offset="33%" stop-color="#333333"/><stop offset="50%" stop-color="#333333" stop-opacity="0.4"/><stop offset="67%" stop-color="#333333" stop-opacity="0.30000000000000004"/><stop offset="83%" stop-color="#333333" stop-opacity="0.1"/><stop offset="100%" stop-color="#333333" stop-opacity="0"/></linearGradient><radialGradient id="grad15" gradientUnits="userSpaceOnUse" cx="0.5" cy="2.5" r="0.5"><stop offset="0%" stop-color="#333333" stop-opacity="0"/><stop offset="33%" stop-color="#333333" stop-opacity="0.1"/><stop offset="67%" stop-color="#333333" stop-opacity="0.30000000000000004"/><stop offset="100%" stop-color="#333333" stop-opacity="0.4"/></radialGradient><linearGradient id="grad16" gradientUnits="userSpaceOnUse" x1="1" y1="1.5" x2="1" y2="2.5"><stop offset="0%" stop-color="#333333" stop-opacity="0"/><stop offset="17%" stop-color="#333333" stop-opacity="0.1"/><stop offset="33%" stop-color="#333333"/><stop offset="50%" stop-color="#333333" stop-opacity="0.4"/><stop offset="67%" stop-color="#333333" stop-opacity="0.30000000000000004"/><stop offset="83%" stop-color="#333333" stop-opacity="0.1"/><stop offset="100%" stop-color="#333333" stop-opacity="0"/></linearGradient><linearGradient id="grad17" gradientUnits="userSpaceOnUse" x1="2" y1="1.5" x2="2" y2="2.5"><stop offset="0%" stop-color="#333333" stop-opacity="0"/><stop offset="17%" stop-color="#333333" stop-opacity="0.1"/><stop offset="33%" stop-color="#333333"/><stop offset="50%" stop-color="#333333" stop-opacity="0.4"/><stop offset="67%" stop-color="#333333" stop-opacity="0.30000000000000004"/><stop offset="83%" stop-color="#333333" stop-opacity="0.1"/><stop offset="100%" stop-color="#333333" stop-opacity="0"/></linearGradient><radialGradient id="grad18" gradientUnits="userSpaceOnUse" cx="2.5" cy="2.5" r="0.5"><stop offset="0%" stop-color="#333333" stop-opacity="0"/><stop offset="33%" stop-color="#333333" stop-opacity="0.1"/><stop offset="67%" stop-color="#333333" stop-opacity="0.30000000000000004"/><stop offset="100%" stop-color="#333333" stop-opacity="0.4"/></radialGradient><linearGradient id="grad19" gradientUnits="userSpaceOnUse" x1="1.5" y1="1" x2="2.5" y2="1"><stop offset="0%" stop-color="#333333" stop-opacity="0"/><stop offset="17%" stop-color="#333333" stop-opacity="0.1"/><stop offset="33%" stop-color="#333333"/><stop offset="50%" stop-color="#333333" stop-opacity="0.4"/><stop offset="67%" stop-color="#333333" stop-opacity="0.30000000000000004"/><stop offset="83%" stop-color="#333333" stop-opacity="0.1"/><stop offset="100%" stop-color="#333333" stop-opacity="0"/></linearGradient><radialGradient id="grad20" gradientUnits="userSpaceOnUse" cx="2.5" cy="0.5" r="0.5"><stop offset="0%" stop-color="#333333" stop-opacity="0"/><stop offset="33%" stop-color="#333333" stop-opacity="0.1"/><stop offset="67%" stop-color="#333333" stop-opacity="0.30000000000000004"/><stop offset="100%" stop-color="#333333" stop-opacity="0.4"/></radialGradient><radialGradient id="grad21" gradientUnits="userSpaceOnUse" cx="2.5" cy="0.5" r="0.5"><stop offset="0%" stop-color="#333333" stop-opacity="0"/><stop offset="33%" stop-color="#333333" stop-opacity="0.1"/><stop offset="67%" stop-color="#333333" stop-opacity="0.30000000000000004"/><stop offset="100%" stop-color="#333333" stop-opacity="0.4"/></radialGradient><linearGradient id="grad22" gradientUnits="userSpaceOnUse" x1="3.5" y1="1" x2="2.5" y2="1"><stop offset="0%" stop-color="#333333" stop-opacity="0"/><stop offset="17%" stop-color="#333333" stop-opacity="0.1"/><stop offset="33%" stop-color="#333333"/><stop offset="50%" stop-color="#333333" stop-opacity="0.4"/><stop offset="67%" stop-color="#333333" stop-opacity="0.30000000000000004"/><stop offset="83%" stop-color="#333333" stop-opacity="0.1"/><stop offset="100%" stop-color="#333333" stop-opacity="0"/></linearGradient><radialGradient id="grad23" gradientUnits="userSpaceOnUse" cx="2.5" cy="1.5" r="0.5"><stop offset="0%" stop-color="#333333" stop-opacity="0"/><stop offset="33%" stop-color="#333333" stop-opacity="0.1"/><stop offset="67%" stop-color="#333333" stop-opacity="0.30000000000000004"/><stop offset="100%" stop-color="#333333" stop-opacity="0.4"/></radialGradient><radialGradient id="grad24" gradientUnits="userSpaceOnUse" cx="2.5" cy="1.5" r="0.5"><stop offset="0%" stop-color="#333333" stop-opacity="0"/><stop offset="33%" stop-color="#333333" stop-opacity="0.1"/><stop offset="67%" stop-color="#333333" stop-opacity="0.30000000000000004"/><stop offset="100%" stop-color="#333333" stop-opacity="0.4"/></radialGradient><radialGradient id="grad25" gradientUnits="userSpaceOnUse" cx="0.5" cy="0" r="1"><stop offset="8%" stop-color="#FFFFFF"/><stop offset="38%" stop-color="#FFFFFF" stop-opacity="0.5"/><stop offset="100%" stop-color="#FFFFFF" stop-opacity="0"/></radialGradient><radialGradient id="grad26" gradientUnits="userSpaceOnUse" cx="1.5" cy="0" r="1"><stop offset="8%" stop-color="#FFFFFF"/><stop offset="38%" stop-color="#FFFFFF" stop-opacity="0.5"/><stop offset="100%" stop-color="#FFFFFF" stop-opacity="0"/></radialGradient><radialGradient id="grad27" gradientUnits="userSpaceOnUse" cx="0" cy="1.5" r="1"><stop offset="8%" stop-color="#FFFFFF"/><stop offset="38%" stop-color="#FFFFFF" stop-opacity="0.5"/><stop offset="100%" stop-color="#FFFFFF" stop-opacity="0"/></radialGradient><radialGradient id="grad28" gradientUnits="userSpaceOnUse" cx="0" cy="0.5" r="1"><stop offset="8%" stop-color="#FFFFFF"/><stop offset="38%" stop-color="#FFFFFF" stop-opacity="0.5"/><stop offset="100%" stop-color="#FFFFFF" stop-opacity="0"/></radialGradient><radialGradient id="grad29" gradientUnits="userSpaceOnUse" cx="1" cy="2" r="2"><stop offset="0%" stop-color="#FFFFFF" stop-opacity="0.39999999999999997"/><stop offset="33%" stop-color="#FFFFFF" stop-opacity="0.19999999999999998"/><stop offset="100%" stop-color="#FFFFFF" stop-opacity="0"/></radialGradient><radialGradient id="grad30" gradientUnits="userSpaceOnUse" cx="0" cy="4" r="2.5"><stop offset="0%" stop-color="#FFFFFF" stop-opacity="0.42857142857142855"/><stop offset="33%" stop-color="#FFFFFF" stop-opacity="0.21428571428571427"/><stop offset="100%" stop-color="#FFFFFF" stop-opacity="0"/></radialGradient><radialGradient id="grad31" gradientUnits="userSpaceOnUse" cx="3" cy="0" r="1.5"><stop offset="0%" stop-color="#FFFFFF" stop-opacity="0.36"/><stop offset="33%" stop-color="#FFFFFF" stop-opacity="0.18"/><stop offset="100%" stop-color="#FFFFFF" stop-opacity="0"/></radialGradient></defs></svg>